<svg width="13" height="13" viewBox="0 0 13 13" fill="none" xmlns="http://www.w3.org/2000/svg">
<path d="M12.5547 12.5938C12.3203 12.8281 11.8906 12.8281 11.6562 12.5938L6.5 7.39844L1.30469 12.5938C1.07031 12.8281 0.640625 12.8281 0.40625 12.5938C0.171875 12.3594 0.171875 11.9297 0.40625 11.6953L5.60156 6.5L0.40625 1.34375C0.171875 1.10938 0.171875 0.679688 0.40625 0.445312C0.640625 0.210938 1.07031 0.210938 1.30469 0.445312L6.5 5.64062L11.6562 0.445312C11.8906 0.210938 12.3203 0.210938 12.5547 0.445312C12.7891 0.679688 12.7891 1.10938 12.5547 1.34375L7.35938 6.5L12.5547 11.6953C12.7891 11.9297 12.7891 12.3594 12.5547 12.5938Z" fill="#202020"/>
</svg>
