<svg width="14" height="15" viewBox="0 0 14 15" fill="none" xmlns="http://www.w3.org/2000/svg">
<path d="M7 0.25C3.0625 0.25 0.109375 3.53125 0 7.25V8.72656C0 9.84766 0.875 10.75 1.99609 10.75H2.48828C3.03516 10.75 3.5 10.3125 3.5 9.73828V6.10156C3.5 5.52734 3.03516 5.0625 2.48828 5.0625H1.99609C1.88672 5.0625 1.80469 5.08984 1.72266 5.11719C2.57031 3.03906 4.62109 1.58984 7 1.58984C9.35156 1.58984 11.4023 3.03906 12.25 5.08984C12.168 5.08984 12.0859 5.0625 11.9766 5.0625H11.4844C10.9375 5.0625 10.5 5.52734 10.5 6.10156V9.73828C10.5 10.3125 10.9375 10.75 11.4844 10.75H11.9766C12.2227 10.75 12.4688 10.7227 12.6875 10.6406V11.1875C12.6875 11.8164 12.1953 12.2812 11.5938 12.2812H8.55859C8.33984 11.8984 7.90234 11.625 7.4375 11.625H6.5625C5.82422 11.625 5.25 12.2266 5.25 12.9375C5.25 13.6758 5.82422 14.25 6.53516 14.25H7.4375C7.90234 14.25 8.33984 14.0039 8.55859 13.5938H11.5938C12.9062 13.5938 14 12.5273 14 11.1875V7.25C13.8633 3.53125 10.9102 0.25 7 0.25ZM1.99609 6.375H2.1875V9.4375H1.99609C1.61328 9.4375 1.3125 9.10938 1.3125 8.72656V7.25C1.3125 7.19531 1.3125 7.14062 1.3125 7.05859C1.33984 6.67578 1.61328 6.375 1.99609 6.375ZM11.9766 9.4375H11.8125V6.375H11.9766C12.3594 6.375 12.6328 6.70312 12.6602 7.05859C12.6602 7.14062 12.6875 7.19531 12.6875 7.25V8.72656C12.6875 9.10938 12.3594 9.4375 11.9766 9.4375Z" fill="#005DB4"/>
</svg>
