<svg width="154" height="55" viewBox="0 0 154 55" fill="none" xmlns="http://www.w3.org/2000/svg">
<path d="M29.8665 15.6543C29.2731 15.0606 28.2841 14.6648 27.4929 14.6648C26.5039 14.6648 25.7126 15.0606 25.1192 15.6543L15.8225 24.9554C15.2291 25.5491 14.8335 26.5386 14.8335 27.3302C14.8335 28.3197 15.2291 29.1113 15.8225 29.705L30.8555 44.7451C30.8555 44.7451 31.0533 44.943 31.0533 45.1409C31.0533 45.3388 31.0533 45.3388 30.8555 45.5367L28.0863 48.3072C28.0863 48.3072 27.8884 48.5052 27.6906 48.5052C27.4928 48.5052 27.4929 48.5051 27.2951 48.3072L6.72363 27.726C6.72363 27.726 6.52581 27.5281 6.52581 27.3302C6.52581 27.1323 6.52582 27.1323 6.72363 26.9344L27.2951 6.35316C27.2951 6.35316 27.4928 6.15525 27.6906 6.15525C27.8884 6.15525 27.8885 6.15526 28.0863 6.35316L37.9764 16.248C37.9764 16.248 38.1742 16.4459 38.372 16.4459C38.5698 16.4459 38.5698 16.4459 38.7676 16.248L39.5588 15.4564C40.1522 14.8627 40.5478 13.8732 40.5478 13.0816C40.5478 12.0921 40.1522 11.3006 39.5588 10.7069L30.2621 1.40574C29.6687 0.812053 28.6797 0.41626 27.8885 0.41626C26.8994 0.41626 26.1083 0.812053 25.5149 1.40574L1.97632 24.9554C1.38291 25.5491 0.987305 26.5386 0.987305 27.3302C0.987305 28.3197 1.38291 29.1113 1.97632 29.705L25.5149 53.2547C26.1083 53.8483 27.0972 54.2441 27.8885 54.2441C28.6797 54.2441 29.6687 53.8483 30.2621 53.2547L35.9984 47.5157C36.5918 46.922 36.9874 45.9325 36.9874 45.1409C36.9874 44.3493 36.5918 43.3598 35.9984 42.7661L31.2511 38.0166L39.5588 29.705C40.1522 29.1113 40.5478 28.1218 40.5478 27.3302C40.5478 26.3407 40.1522 25.5491 39.5588 24.9554L29.8665 15.6543ZM27.6906 34.2566C27.6906 34.2566 27.4929 34.4545 27.2951 34.4545C27.0973 34.4545 27.0972 34.4545 26.8994 34.2566L20.5698 27.9239C20.5698 27.9239 20.372 27.726 20.372 27.5281C20.372 27.3302 20.372 27.3302 20.5698 27.1323L26.8994 20.7996C26.8994 20.7996 27.0973 20.6017 27.2951 20.6017C27.4929 20.6017 27.4928 20.6017 27.6906 20.7996L34.0203 27.1323C34.0203 27.1323 34.2182 27.3302 34.2182 27.5281C34.2182 27.726 34.2182 27.726 34.0203 27.9239L27.6906 34.2566Z" fill="white"/>
<path d="M50.8331 39.7982C50.8331 39.9961 50.8331 39.9961 50.8331 39.9961C50.8331 39.9961 50.6352 39.9961 50.4374 39.9961H48.855C48.6572 39.9961 48.6572 39.9961 48.6572 39.9961V39.7982V30.1013C48.6572 29.9034 48.6572 29.5076 48.855 29.3097C49.0528 29.1118 49.2506 29.1118 49.6462 29.1118H53.6023C54.1957 29.1118 54.5913 29.1118 55.1847 29.3097C55.5804 29.5076 55.9759 29.7055 56.3715 30.1013C56.7671 30.4971 56.965 30.695 57.1628 31.2887C57.3606 31.6845 57.3605 32.0803 57.3605 32.674C57.3605 32.8719 57.3606 33.2677 57.1628 33.6635C57.1628 34.0593 56.9649 34.455 56.5693 34.8508C56.3715 35.2466 55.9759 35.6424 55.3825 35.8403C54.7891 36.0382 54.1957 36.2361 53.2067 36.2361H50.8331V39.7982ZM54.3935 32.674C54.3935 32.4761 54.3935 32.2782 54.3935 32.2782C54.3935 32.0803 54.1957 31.8824 54.1957 31.8824C53.9979 31.6845 53.9979 31.6845 53.8001 31.4866C53.6023 31.2887 53.4045 31.2887 53.0089 31.2887H51.0309V34.2571H53.0089C53.6023 34.2571 53.9979 34.0592 54.1957 33.8613C54.1957 33.4655 54.3935 33.0698 54.3935 32.674Z" fill="white"/>
<path d="M66.4584 39.9957H66.2606H61.5134C60.92 39.9957 60.5244 39.9957 60.1288 39.7978C59.7332 39.5999 59.5353 39.4021 59.3375 39.2042C59.1397 39.0063 58.942 38.6105 58.942 38.2147C58.942 37.8189 58.7441 37.4231 58.7441 37.2252V32.0799C58.7441 31.6841 58.7442 31.2883 58.942 31.0904C59.1398 30.6946 59.1397 30.4967 59.5353 30.1009C59.7331 29.903 60.1287 29.7051 60.5244 29.5072C60.92 29.3093 61.3156 29.3093 61.909 29.3093H66.4584C66.6562 29.3093 66.6562 29.3093 66.6562 29.3093C66.6562 29.3093 66.6562 29.5072 66.6562 29.7051V31.0904C66.6562 31.2883 66.6562 31.2883 66.6562 31.2883H66.4584H62.5024C62.1068 31.2883 61.909 31.2883 61.7112 31.4862C61.5134 31.6841 61.5134 31.882 61.5134 32.2778V33.4652H66.0629C66.2607 33.4652 66.2606 33.4652 66.2606 33.4652C66.2606 33.4652 66.2606 33.663 66.2606 33.8609V35.0483C66.2606 35.2462 66.2606 35.2462 66.2606 35.2462H66.0629H61.5134V37.0273C61.5134 37.4231 61.5134 37.621 61.7112 37.8189C61.909 38.0168 62.1068 38.0168 62.5024 38.0168H66.6562C66.854 38.0168 66.8541 38.0168 66.8541 38.0168C66.8541 38.0168 66.8541 38.2147 66.8541 38.4126V39.7978C66.4585 39.7978 66.4584 39.9957 66.4584 39.9957Z" fill="white"/>
<path d="M77.3376 33.663L76.5464 35.0482L75.1618 38.0167C74.964 38.2146 74.964 38.4125 74.7662 38.6104C74.5684 38.6104 74.3706 38.8082 74.1728 38.8082H73.3816C73.1838 38.8082 72.986 38.8083 72.7882 38.6104C72.5904 38.6104 72.5904 38.4125 72.3926 38.0167L71.4036 36.0377L70.4145 33.8608V39.7977C70.4145 39.9956 70.4145 39.9956 70.4145 39.9956H70.2167H68.6343C68.4365 39.9956 68.4365 39.9956 68.4365 39.9956V39.7977V30.1008C68.4365 29.705 68.4365 29.5071 68.6343 29.3092C68.8321 29.1113 69.0299 29.1113 69.4255 29.1113H70.4145C70.8102 29.1113 71.008 29.1113 71.008 29.3092C71.2058 29.5071 71.2058 29.705 71.4036 29.9029L73.1838 33.663L74.1728 35.8398L75.1618 33.4651L76.7443 29.9029C76.9421 29.705 76.942 29.5071 77.1398 29.3092C77.3376 29.1113 77.5355 29.1113 77.9311 29.1113H78.7223C79.1179 29.1113 79.3157 29.1113 79.5135 29.3092C79.7113 29.5071 79.7113 29.705 79.7113 30.1008V39.7977C79.7113 39.9956 79.7113 39.9956 79.7113 39.9956H79.5135H77.9311C77.7333 39.9956 77.7333 39.9956 77.7333 39.9956V39.7977V33.663H77.3376Z" fill="white"/>
<path d="M91.3827 34.4548C91.3827 35.4443 91.3827 36.2358 91.1849 36.8295C90.9871 37.6211 90.5915 38.2149 90.1959 38.6106C89.8003 39.2043 89.2069 39.4022 88.6135 39.798C88.0201 39.9959 87.2289 40.1938 86.4377 40.1938C84.8553 40.1938 83.6685 39.6001 82.8773 38.6106C82.086 37.6212 81.6904 36.2359 81.6904 34.4548C81.6904 33.6632 81.8882 32.8716 82.086 32.08C82.2838 31.2884 82.6794 30.6948 83.075 30.299C83.4706 29.9032 84.0641 29.5074 84.6575 29.1116C85.2509 28.9137 85.8443 28.7158 86.6355 28.7158C87.4267 28.7158 88.2179 28.9137 88.8113 29.1116C89.4047 29.3095 89.9981 29.7053 90.3937 30.299C90.7893 30.6948 91.1849 31.2884 91.3827 32.08C91.3827 32.8716 91.3827 33.6632 91.3827 34.4548ZM88.8113 34.6527C88.8113 34.2569 88.8113 33.6632 88.6135 33.2674C88.6135 32.8716 88.4157 32.4758 88.2179 32.08C88.0201 31.6842 87.8223 31.4863 87.4267 31.2885C87.0311 31.0906 86.6355 31.0905 86.2399 31.0905C85.8443 31.0905 85.4487 31.0906 85.2509 31.2885C84.8552 31.4863 84.6575 31.6842 84.4597 32.08C84.2619 32.4758 84.064 32.6737 84.064 33.2674C84.064 33.6632 83.8663 34.059 83.8663 34.6527C83.8663 35.2464 83.8662 35.6422 84.064 36.2359C84.064 36.6317 84.2619 37.0275 84.4597 37.4233C84.6575 37.819 84.8552 38.0169 85.2509 38.2148C85.6465 38.4127 85.8443 38.4127 86.4377 38.4127C86.8333 38.4127 87.2289 38.2148 87.6245 38.2148C88.0201 38.0169 88.2179 37.819 88.4157 37.4233C88.6135 37.0275 88.8113 36.6317 88.8113 36.2359C88.8113 35.4443 88.8113 35.0485 88.8113 34.6527Z" fill="white"/>
<path d="M102.461 39.9956C102.461 39.9956 102.263 39.9956 102.065 39.9956H100.483C100.285 39.9956 100.285 39.9956 100.285 39.9956V39.7977V35.444H95.9336V39.7977C95.9336 39.9956 95.9336 39.9956 95.9336 39.9956C95.9336 39.9956 95.7358 39.9956 95.538 39.9956H93.9556C93.7578 39.9956 93.7578 39.9956 93.7578 39.9956V39.7977V29.3092C93.7578 29.1113 93.7578 29.1113 93.7578 29.1113H93.9556H95.538C95.7358 29.1113 95.7358 29.1113 95.9336 29.1113V29.3092V33.2672H100.285V29.3092C100.285 29.1113 100.285 29.1113 100.285 29.1113H100.483H102.065C102.263 29.1113 102.263 29.1113 102.461 29.1113V29.3092V39.7977C102.461 39.9956 102.461 39.9956 102.461 39.9956Z" fill="white"/>
<path d="M112.35 31.0903H109.581V39.7977C109.581 39.9956 109.581 39.9956 109.581 39.9956C109.581 39.9956 109.383 39.9956 109.185 39.9956H107.405C107.207 39.9956 107.207 39.9956 107.207 39.9956V39.7977V31.0903H104.24C104.043 31.0903 103.845 30.8924 103.845 30.6945V29.3092C103.845 29.1113 103.845 29.1113 103.845 29.1113H104.043H112.152C112.35 29.1113 112.35 29.1113 112.35 29.1113V29.3092V30.6945C112.548 30.8924 112.548 31.0903 112.35 31.0903Z" fill="white"/>
<path d="M53.6023 23.9662C54.1957 23.9662 54.5913 23.9663 54.9869 23.7684C55.3825 23.5705 55.7782 23.5705 56.1738 23.3726C56.3716 23.3726 56.3715 23.3726 56.5693 23.3726L56.7671 23.5705L57.3605 24.7579C57.3605 24.9558 57.5583 24.9557 57.3605 25.1536C57.3605 25.1536 57.3606 25.3515 57.1628 25.3515C56.5694 25.7473 55.9759 25.9452 55.3825 26.1431C54.7891 26.341 54.1957 26.341 53.6023 26.341C52.8111 26.341 52.0199 26.1431 51.4265 25.9452C50.833 25.7473 50.2397 25.3516 49.8441 24.7579C49.4484 24.3621 49.0528 23.7683 48.855 22.9767C48.6572 22.1852 48.6572 21.3936 48.6572 20.602C48.6572 19.8104 48.8551 19.0188 49.0529 18.2272C49.2507 17.4357 49.6463 16.842 50.0419 16.4462C50.4375 15.8525 51.0309 15.4567 51.6243 15.2588C52.2177 15.0609 53.0089 14.863 53.6023 14.863C54.1957 14.863 54.5913 14.863 55.1847 15.0609C55.7782 15.0609 56.1737 15.2588 56.7671 15.6546C56.9649 15.6546 56.965 15.8525 56.965 15.8525C56.965 15.8525 56.965 16.0504 56.965 16.2483L56.5693 17.4357C56.5693 17.6336 56.3715 17.6336 56.3715 17.6336C56.3715 17.6336 56.1737 17.6336 55.9759 17.6336C55.5803 17.4357 55.1847 17.4357 54.9869 17.2378C54.5913 17.2378 54.3935 17.0399 53.9979 17.0399C53.6023 17.0399 53.2067 17.0399 52.8111 17.2378C52.4155 17.4357 52.2177 17.6335 52.0199 18.0293C51.8221 18.4251 51.6243 18.8209 51.4265 19.2167C51.2286 19.6125 51.2287 20.2062 51.2287 20.602C51.2287 21.1957 51.2286 21.5915 51.4265 21.9873C51.4265 22.3831 51.6243 22.7789 51.8221 23.1747C52.0199 23.5704 52.4155 23.7683 52.6133 23.9662C52.6133 23.7683 53.2067 23.9662 53.6023 23.9662Z" fill="white"/>
<path d="M64.6784 23.5705H61.118L60.5245 25.5494C60.5245 25.7473 60.5245 25.7473 60.3267 25.7473C60.3267 25.7473 60.129 25.7473 59.9312 25.7473H58.1509C57.9531 25.7473 57.9531 25.7473 57.9531 25.7473V25.5494L61.3157 15.6546C61.3157 15.4567 61.5135 15.2588 61.5135 15.2588C61.5135 15.0609 61.7114 15.0609 61.7114 15.0609C61.7114 15.0609 61.9092 14.863 62.107 14.863C62.3048 14.863 62.3048 14.863 62.5026 14.863H63.4916C63.6894 14.863 63.8872 14.863 63.8872 14.863C64.085 14.863 64.085 14.863 64.2828 15.0609L64.4806 15.2588C64.4806 15.4567 64.6784 15.4567 64.6784 15.6546L68.0411 25.5494V25.7473C68.0411 25.7473 68.0411 25.9452 67.8433 25.9452H65.8652C65.6674 25.9452 65.6674 25.9452 65.6674 25.9452C65.6674 25.9452 65.4696 25.9452 65.4696 25.7473L64.6784 23.5705ZM61.5135 21.5915H64.085L63.4916 19.6125L62.8982 17.4357L62.3047 19.6125L61.5135 21.5915Z" fill="white"/>
<path d="M78.1301 25.7473C78.1301 25.7473 77.9323 25.7473 77.7345 25.7473H76.152C75.9542 25.7473 75.9543 25.7473 75.9543 25.7473V25.5494V21.1957H71.6026V25.5494C71.6026 25.7473 71.6026 25.7473 71.6026 25.7473C71.6026 25.7473 71.4048 25.7473 71.207 25.7473H69.6246C69.4268 25.7473 69.4268 25.7473 69.4268 25.7473V25.5494V15.0609C69.4268 14.863 69.4268 14.863 69.4268 14.863H69.6246H71.207C71.4048 14.863 71.4048 14.863 71.6026 14.863V15.0609V19.0188H75.9543V15.0609C75.9543 14.863 75.9543 14.863 75.9543 14.863H76.152H77.7345C77.9323 14.863 77.9323 14.863 78.1301 14.863V15.0609V25.5494C78.3279 25.7473 78.3279 25.7473 78.1301 25.7473Z" fill="white"/>
<path d="M88.0196 16.842H85.2504V25.5494C85.2504 25.7473 85.2504 25.7473 85.2504 25.7473C85.2504 25.7473 85.0526 25.7473 84.8548 25.7473H83.0745C82.8767 25.7473 82.8768 25.7473 82.8768 25.7473V25.5494V16.842H80.1075C79.9097 16.842 79.7119 16.6441 79.7119 16.4462V15.0609C79.7119 14.863 79.7119 14.863 79.7119 14.863H79.9097H88.0196C88.2174 14.863 88.2174 14.863 88.2174 14.863V15.0609V16.4462C88.4152 16.842 88.2174 16.842 88.0196 16.842Z" fill="white"/>
<path d="M97.5137 25.7473H97.3158H92.5686C91.9752 25.7473 91.5796 25.7473 91.184 25.5494C90.7884 25.3515 90.5906 25.1536 90.1949 24.9557C89.9971 24.7578 89.7994 24.362 89.7994 23.9662C89.7994 23.5704 89.6016 23.1746 89.6016 22.9767V17.8315C89.6016 17.4357 89.6016 17.0399 89.7994 16.6441C89.9972 16.2483 89.9972 16.0504 90.3928 15.6546C90.5906 15.4567 90.9862 15.2588 91.3818 15.0609C91.7774 14.863 92.173 14.863 92.7664 14.863H97.3158C97.5137 14.863 97.5137 14.863 97.5137 14.863C97.5137 14.863 97.5137 15.0609 97.5137 15.2588V16.6441C97.5137 16.842 97.5137 16.842 97.5137 16.842H97.3158H93.3598C92.9642 16.842 92.7664 16.842 92.5686 17.0399C92.3708 17.2377 92.3708 17.4357 92.3708 17.8315V19.0188H96.9202C97.118 19.0188 97.118 19.0188 97.118 19.0188C97.118 19.0188 97.118 19.2167 97.118 19.4146V20.602C97.118 20.7999 97.118 20.7999 97.118 20.7999H96.9202H92.3708V22.581C92.3708 22.9768 92.3708 23.1747 92.5686 23.3726C92.7664 23.5705 92.9642 23.5705 93.3598 23.5705H97.5137C97.7115 23.5705 97.7115 23.5705 97.7115 23.5705C97.7115 23.5705 97.7115 23.7683 97.7115 23.9662V25.3515C97.5137 25.7473 97.5137 25.7473 97.5137 25.7473Z" fill="white"/>
<path d="M103.052 22.1848L101.074 25.5491C101.074 25.747 100.876 25.747 100.876 25.747C100.876 25.747 100.678 25.747 100.481 25.747H98.5025C98.5025 25.747 98.3047 25.747 98.3047 25.5491V25.3512L101.667 20.008L98.5025 15.0606V14.8627L98.7003 14.6648H100.481C100.678 14.6648 100.876 14.6648 100.876 14.6648L101.074 14.8627L102.854 18.029L104.634 14.8627C104.634 14.6648 104.832 14.6648 104.832 14.6648C104.832 14.6648 105.03 14.6648 105.228 14.6648H107.008C107.206 14.6648 107.206 14.6648 107.206 14.8627V15.0606L104.239 20.008L107.601 25.5491V25.747C107.601 25.747 107.601 25.9449 107.404 25.9449H105.426C105.228 25.9449 105.03 25.9449 105.03 25.9449L104.832 25.747L103.052 22.1848Z" fill="white"/>
<path d="M118.283 25.549C118.283 25.7469 118.283 25.7469 118.283 25.7469H118.085H116.107C115.909 25.7469 115.712 25.549 115.712 25.3511V16.6437H111.36V25.3511C111.36 25.549 111.36 25.549 111.36 25.549H111.162H109.382C109.184 25.549 108.986 25.3511 108.986 25.1532V15.4563C108.986 15.0605 108.986 14.8626 109.184 14.6647C109.382 14.4668 109.58 14.4668 109.975 14.4668H117.096C117.492 14.4668 117.69 14.4668 117.887 14.6647C118.085 14.8626 118.085 15.0605 118.085 15.4563V25.549H118.283Z" fill="white"/>
<path d="M123.031 25.5494C123.031 25.7473 123.031 25.7473 123.031 25.7473C123.031 25.7473 122.833 25.7473 122.636 25.7473H121.053C120.855 25.7473 120.855 25.7473 120.855 25.7473V25.5494V15.8525C120.855 15.6546 120.855 15.2588 121.053 15.0609C121.251 14.863 121.449 14.863 121.844 14.863H125.801C126.394 14.863 126.79 14.863 127.383 15.0609C127.779 15.2588 128.174 15.4567 128.57 15.8525C128.965 16.2483 129.163 16.4462 129.361 16.842C129.559 17.2378 129.559 17.6336 129.559 18.2272C129.559 18.4251 129.559 18.8209 129.361 19.2167C129.361 19.6125 129.163 20.0083 128.768 20.4041C128.57 20.7999 128.174 21.1957 127.581 21.3936C126.987 21.5915 126.394 21.7894 125.405 21.7894H123.229V25.5494H123.031ZM126.592 18.4252C126.592 18.2273 126.592 18.0293 126.592 18.0293C126.592 17.8314 126.394 17.6336 126.394 17.6336C126.196 17.4357 126.196 17.4357 125.998 17.2378C125.801 17.2378 125.603 17.0399 125.207 17.0399H123.229V20.0083H125.207C125.801 20.0083 126.196 19.8104 126.394 19.6125C126.394 19.2167 126.592 18.8209 126.592 18.4252Z" fill="white"/>
<path d="M140.24 20.4038C140.24 21.3933 140.042 22.1849 140.042 22.7786C139.845 23.5702 139.449 24.1638 139.053 24.5596C138.658 25.1533 138.064 25.3512 137.471 25.747C136.878 25.9449 136.086 26.1428 135.295 26.1428C133.713 26.1428 132.526 25.5491 131.735 24.5596C130.943 23.5701 130.548 22.1849 130.548 20.4038C130.548 19.6122 130.746 18.8206 130.943 18.029C131.141 17.2374 131.537 16.6437 131.932 16.2479C132.328 15.8522 132.921 15.4563 133.515 15.0606C134.108 14.8627 134.702 14.6648 135.493 14.6648C136.284 14.6648 137.075 14.8627 137.669 15.0606C138.262 15.2584 138.856 15.6543 139.251 16.2479C139.647 16.6437 140.042 17.2374 140.24 18.029C140.042 18.6227 140.24 19.4143 140.24 20.4038ZM137.669 20.4038C137.669 20.008 137.669 19.4143 137.471 19.0185C137.471 18.6227 137.273 18.2269 137.075 17.8312C136.878 17.4354 136.68 17.2374 136.284 17.0395C135.889 16.8416 135.493 16.8417 135.097 16.8417C134.702 16.8417 134.306 16.8416 134.108 17.0395C133.713 17.2374 133.515 17.4354 133.317 17.8312C133.119 18.2269 132.922 18.4248 132.922 19.0185C132.922 19.4143 132.724 19.8101 132.724 20.4038C132.724 20.9975 132.724 21.3932 132.922 21.9869C132.922 22.3827 133.119 22.7785 133.317 23.1743C133.515 23.5701 133.713 23.768 134.108 23.9659C134.504 24.1638 134.702 24.1638 135.295 24.1638C135.691 24.1638 136.086 24.1638 136.482 23.9659C136.878 23.768 137.075 23.5701 137.273 23.1743C137.471 22.7785 137.669 22.3827 137.669 21.9869C137.669 21.1953 137.669 20.7996 137.669 20.4038Z" fill="white"/>
<path d="M151.316 19.6122L150.525 20.9974L149.14 23.9659C148.943 24.1638 148.943 24.3617 148.745 24.5596C148.547 24.5596 148.349 24.7575 148.151 24.7575H147.36C147.162 24.7575 146.965 24.7575 146.767 24.5596C146.767 24.5596 146.569 24.3617 146.371 23.9659L145.382 21.9869L144.393 19.8101V25.747C144.393 25.9449 144.393 25.9449 144.393 25.9449H144.195H142.613C142.415 25.9449 142.415 25.9449 142.415 25.9449V25.747V16.05C142.415 15.6542 142.415 15.4564 142.613 15.2585C142.811 15.0606 143.008 15.0605 143.404 15.0605H144.393C144.789 15.0605 144.987 15.0606 144.987 15.2585C145.184 15.4564 145.184 15.6543 145.382 15.8522L147.162 19.6122L148.151 21.7891L149.14 19.4143L150.723 15.8522C150.921 15.6543 150.921 15.4564 151.118 15.2585C151.316 15.0606 151.514 15.0605 151.91 15.0605H152.701C153.096 15.0605 153.294 15.0606 153.492 15.2585C153.69 15.4564 153.69 15.6542 153.69 16.05V25.747C153.69 25.9449 153.69 25.9449 153.69 25.9449H153.492H151.712C151.514 25.9449 151.514 25.9449 151.514 25.9449V25.747V19.6122H151.316Z" fill="white"/>
</svg>
