<svg width="15" height="12" viewBox="0 0 15 12" fill="none" xmlns="http://www.w3.org/2000/svg">
<path d="M0.5 0.75C0.5 0.34375 0.8125 0 1.25 0H13.75C14.1562 0 14.5 0.34375 14.5 0.75C14.5 1.1875 14.1562 1.5 13.75 1.5H1.25C0.8125 1.5 0.5 1.1875 0.5 0.75ZM0.5 5.75C0.5 5.34375 0.8125 5 1.25 5H13.75C14.1562 5 14.5 5.34375 14.5 5.75C14.5 6.1875 14.1562 6.5 13.75 6.5H1.25C0.8125 6.5 0.5 6.1875 0.5 5.75ZM13.75 11.5H1.25C0.8125 11.5 0.5 11.1875 0.5 10.75C0.5 10.3438 0.8125 10 1.25 10H13.75C14.1562 10 14.5 10.3438 14.5 10.75C14.5 11.1875 14.1562 11.5 13.75 11.5Z" fill="#005DB4"/>
</svg>
