<svg width="13" height="13" viewBox="0 0 13 13" fill="none" xmlns="http://www.w3.org/2000/svg">
<path d="M11.25 8.02344L8.95312 7.03906C8.4375 6.80469 7.85156 6.96875 7.5 7.39062L6.86719 8.16406C5.8125 7.55469 4.94531 6.6875 4.33594 5.65625L5.13281 5.02344C5.53125 4.67188 5.69531 4.08594 5.48438 3.59375L4.47656 1.25C4.24219 0.710938 3.65625 0.40625 3.07031 0.546875L0.9375 1.03906C0.375 1.15625 0 1.64844 0 2.23438C0 7.90625 4.59375 12.5 10.2656 12.5C10.8516 12.5 11.3438 12.125 11.4375 11.5625L11.9297 9.42969C12.0938 8.84375 11.7891 8.25781 11.25 8.02344ZM10.8516 9.17188L10.3594 11.3047C10.3594 11.3281 10.3125 11.375 10.2656 11.375C5.22656 11.375 1.10156 7.27344 1.10156 2.23438C1.10156 2.1875 1.14844 2.14062 1.19531 2.14062L3.32812 1.64844L3.35156 1.625C3.39844 1.625 3.42188 1.67188 3.44531 1.69531L4.42969 3.99219C4.45312 4.03906 4.45312 4.08594 4.40625 4.10938L3.25781 5.04688C3.07031 5.21094 3 5.49219 3.11719 5.72656C3.89062 7.29688 5.17969 8.58594 6.75 9.35938C6.98438 9.47656 7.28906 9.42969 7.45312 9.21875L8.39062 8.07031C8.41406 8.04688 8.46094 8.02344 8.50781 8.04688L10.8047 9.03125C10.8516 9.07812 10.875 9.125 10.8516 9.17188Z" fill="#FE5603"/>
</svg>
